<svg id="icon-mail" viewBox="0 0 24 24">
    <path d="M23.986,3.43c-0.006-0.037-0.009-0.074-0.022-0.109c-0.014-0.034-0.035-0.063-0.056-0.093
	c-0.014-0.021-0.021-0.044-0.038-0.063c-0.003-0.003-0.007-0.004-0.01-0.007c-0.025-0.027-0.058-0.045-0.089-0.065
	c-0.023-0.016-0.044-0.036-0.069-0.047c-0.026-0.011-0.056-0.013-0.083-0.02c-0.035-0.009-0.069-0.021-0.106-0.021
	C23.509,3.002,23.505,3,23.5,3h-22C1.496,3,1.492,3.002,1.487,3.002c-0.034,0.001-0.066,0.012-0.099,0.02
	C1.357,3.03,1.326,3.032,1.297,3.044c-0.021,0.01-0.039,0.027-0.059,0.04C1.204,3.106,1.168,3.127,1.14,3.157
	C1.137,3.16,1.133,3.161,1.13,3.164C1.113,3.183,1.106,3.206,1.092,3.227C1.072,3.257,1.05,3.286,1.036,3.321
	C1.023,3.355,1.02,3.391,1.015,3.427C1.011,3.452,1,3.474,1,3.5v18C1,21.776,1.224,22,1.5,22h22c0.276,0,0.5-0.224,0.5-0.5v-18
	C24,3.475,23.989,3.454,23.986,3.43z M22.207,4L12.5,12.824L2.793,4H22.207z M2,21V4.63l10.164,9.24
	C12.259,13.957,12.379,14,12.5,14c0.12,0,0.241-0.043,0.336-0.13L23,4.63V21H2z"></path>
</svg>